# xmcd
# 
# Track frame offsets:
#     150
#     20710
#     39820
#     54252
#     71183
#     92148
#     112519
#     135557
#     164882
#     188443
#     206583
# 
# Disc length: 3057
# 
# Revision: 2
# Processed by: cddbd v1.5.2PL0 Copyright (c) Steve Scherf et al.
# Submitted via: BonkEnc v1.0.8
# 
DISCID=8e0bef0b
DTITLE=John Lee Hooker - Past Perfect, Disc Ten: I Feel Good
DYEAR=0
DGENRE=Blues
TTITLE0=Baby Baby
TTITLE1=I Feel Good
TTITLE2=Going Home
TTITLE3=We Are Cooking
TTITLE4=Looking Back over My Day
TTITLE5=Dazie Mae
TTITLE6=Stand Back
TTITLE7=Call it the Night
TTITLE8=Roll and Rumble
TTITLE9=Bottle of Wine
TTITLE10=Baby Don't Do Me Wrong
EXTD=
EXTT0=
EXTT1=
EXTT2=
EXTT3=
EXTT4=
EXTT5=
EXTT6=
EXTT7=
EXTT8=
EXTT9=
EXTT10=
PLAYORDER=
